<svg width="417" height="117" xmlns="http://www.w3.org/2000/svg" class="fl-svgdocument">

 <g>
  <title>Layer 1</title>
  <rect transform="matrix(1.16722 0 0 0.554294 60.0032 206.601)" fill="#ffffff" height="176.769" width="176.769" y="-353.60285" x="-40.27961" id="_ei1a8ka45_56"/>
  <rect transform="matrix(1.04266 0 0 0.668177 279.703 196.944)" fill="#2a9fd6" height="176.769" width="176.769" y="-294.83203" x="-45.0899" id="_tu7HYPu4gJOBtwExni1uX"/>
  <path d="m70.9659,41.93737l0,6.20189l-13.6588,0l0,27.99151l-6.20189,0l0,-27.99151l-13.6881,0l0,-6.20189l33.54879,0zm36.91149,3.12536l0,31.06803l-6.197,0l0,-8.39452l-21.7945,0l0,8.39452l-6.20189,0l0,-17.0967q0,-3.74555 1.28921,-6.89044q1.28921,-3.14978 3.57951,-5.41566q2.28542,-2.261 5.41078,-3.5258q3.12536,-1.26479 6.81719,-1.26479l0,0l13.97622,0q0.64461,0 1.21596,0.23929q0.57135,0.23929 1.00109,0.66902q0.42974,0.42485 0.66902,1.00109q0.2344,0.57135 0.2344,1.21596l0,0zm-27.99151,13.97134l0,2.50517l21.7945,0l0,-13.39998l-10.89969,0q-0.28324,0 -1.20131,0.08302q-0.91807,0.08302 -2.12427,0.41509q-1.20131,0.33207 -2.53936,1.02551q-1.33316,0.69344 -2.45634,1.9094q-1.11829,1.21596 -1.84592,3.03746q-0.72762,1.82638 -0.72762,4.42434l0,0zm69.31818,8.39452l0,1.19154q0,1.14271 -0.39555,2.45634q-0.39555,1.30874 -1.28921,2.43192q-0.89366,1.11829 -2.32449,1.87033q-1.43083,0.75204 -3.50138,0.75204l0,0l-23.53787,0q-0.66902,0 -1.24038,-0.23929q-0.57135,-0.23929 -0.98644,-0.65437q-0.41997,-0.41997 -0.65926,-0.99133q-0.2344,-0.57135 -0.2344,-1.24038l0,0l0,-27.94267q0,-0.64461 0.2344,-1.21596q0.23929,-0.57624 0.65926,-1.00109q0.41509,-0.42974 0.98644,-0.66902q0.57135,-0.23929 1.24038,-0.23929l0,0l20.74458,0q1.14759,0 2.45634,0.40532q1.31363,0.40532 2.44657,1.29898q1.13294,0.89366 1.8801,2.32449q0.75204,1.43083 0.75204,3.50626l0,0l0,1.16713q0,1.6457 -0.54694,3.54045q-0.54694,1.89963 -1.7629,3.58928l0,0q1.04504,0.64461 1.96312,1.55291q0.91807,0.90342 1.61151,2.09497q0.69344,1.19154 1.09876,2.69562q0.40532,1.50408 0.40532,3.31581l0,0zm-6.20189,1.14271l0,-1.14271q0,-1.21596 -0.3809,-2.18287q-0.3809,-0.96691 -1.07434,-1.65546q-0.68856,-0.69344 -1.67011,-1.06458q-0.97668,-0.36625 -2.19264,-0.36625l0,0l-13.97134,0l0,-6.25072l11.18293,0q1.21596,0 2.19264,-0.36625q0.97668,-0.37114 1.67011,-1.06458q0.69344,-0.68856 1.05969,-1.65546q0.37114,-0.96691 0.37114,-2.18287l0,0l0,-1.16713q0,-1.33316 -1.28921,-1.33316l0,0l-17.66805,0l0,21.78962l20.46134,0q0.16603,0 0.40532,-0.01953q0.2344,-0.02442 0.42485,-0.1465q0.19045,-0.1172 0.33695,-0.40532q0.14162,-0.28324 0.14162,-0.78622l0,0zm17.83809,-26.63393l0,34.1934l-6.20189,0l0,-34.1934l6.20189,0zm35.43217,8.70218l0,16.78904q0,2.4075 -0.86924,4.06297q-0.87412,1.66035 -2.1731,2.69562q-1.29898,1.03528 -2.82259,1.48943q-1.5285,0.45415 -2.83724,0.45415l0,0l-19.88999,0l0,-6.20189l19.88999,0q1.25991,0 1.87033,-0.63972q0.60554,-0.64461 0.60554,-1.86057l0,0l0,-5.26916l-22.36586,0l0,-6.25072l22.36586,0l0,-5.22033q0,-2.54912 -2.47587,-2.54912l0,0l-19.88999,0l0,-6.20189l19.88999,0q1.59686,0 2.86166,0.40532q1.25991,0.40532 2.22682,1.08411q0.96691,0.67879 1.65546,1.56268q0.69344,0.88389 1.12318,1.84592q0.42974,0.96691 0.62996,1.95823q0.2051,0.98644 0.2051,1.84592l0,0z" font-style="normal" font-weight="400" id="_kgrGoEl80OA2fNhtLVFXi" fill="#2a9fd6" y="0" x="0" font-scale="contain" font-family="Audiowide" space="preserve" dy="0" dx="0" offset="1" side="left" letter-spacing="0" font-size="100" text-anchor="end" text="TABI3"/>
  <path d="m283.65611,72.97509l-1.97649,11.01188l-32.18856,0l8.9648,-50.82404l12.70601,0l-6.98831,39.81217l19.48255,0zm12.63542,-39.81217l12.70601,0l-8.89421,50.82404l-12.7766,0l8.9648,-50.82404zm33.03563,38.47098l1.62355,0l13.4119,-38.47098l13.76484,0l-19.27078,50.82404l-22.58846,0l-0.56471,-50.82404l13.83543,0l-0.21177,38.47098zm63.883,1.34119l-1.97649,11.01188l-35.43565,0l8.9648,-50.82404l35.43565,0l-1.97649,11.01188l-22.72964,0l-1.62355,9.52951l18.77666,0l-1.97649,11.01188l-18.77666,0l-1.41178,8.25891l22.72964,0z" id="_t267fz43MnLYeMl49mrX4" fill="#ffffff" y="0" x="0" font-scale="contain" font-family="Fugaz One" space="preserve" dy="0" dx="0" offset="0" side="left" letter-spacing="0" font-size="100" text-anchor="start" text="LIVE"/>
  <path stroke="null" fill="#2a9fd6" d="m221.73877,9.54055l0,98.98705l-210.78798,0l0,-98.98705l210.78798,0m11.95079,-9.42734l-234.68955,0l0,117.84173l234.68955,0l0,-117.84173l0,0z" id="_i-P5Eg4_6TvtwfSdK4Ta9"/>
 </g>
</svg>